<?xml version="1.0" encoding="UTF-8"?>
<svg width="131px" height="32px" viewBox="0 0 131 32" version="1.1" xmlns="http://www.w3.org/2000/svg" xmlns:xlink="http://www.w3.org/1999/xlink">
    <title>Group Copy</title>
    <defs>
        <path d="M10.0815682,12.2862423 L4.13108845,12.2862423 L3.1464767,15.1330546 L0,15.1330546 L5.37255545,0.171236827 L8.86150579,0.171236827 L14.2340612,15.1330546 L11.0661799,15.1330546 L10.0815682,12.2862423 Z M9.26819326,9.88892676 L7.10632832,3.63878257 L4.94446338,9.88892676 L9.26819326,9.88892676 Z" id="path-1"></path>
        <filter x="-323.2%" y="-294.1%" width="746.3%" height="714.9%" filterUnits="objectBoundingBox" id="filter-2">
            <feOffset dx="0" dy="2" in="SourceAlpha" result="shadowOffsetOuter1"></feOffset>
            <feGaussianBlur stdDeviation="15" in="shadowOffsetOuter1" result="shadowBlurOuter1"></feGaussianBlur>
            <feColorMatrix values="0 0 0 0 1   0 0 0 0 1   0 0 0 0 1  0 0 0 0.29 0" type="matrix" in="shadowBlurOuter1"></feColorMatrix>
        </filter>
        <path d="M20.1512449,0.19264143 L20.1512449,9.43943009 C20.1512449,10.4525813 20.415235,11.2267145 20.9432153,11.7618296 C21.4711955,12.2969446 22.2132217,12.5645022 23.169294,12.5645022 C24.139636,12.5645022 24.8887971,12.2969446 25.4167774,11.7618296 C25.9447576,11.2267145 26.2087477,10.4525813 26.2087477,9.43943009 L26.2087477,0.19264143 L29.2267968,0.19264143 L29.2267968,9.41802548 C29.2267968,10.6880319 28.9521043,11.7618296 28.4027195,12.6394183 C27.8533347,13.517007 27.1184433,14.1769823 26.1980454,14.6193441 C25.2776474,15.0617059 24.2537939,15.2828868 23.1264848,15.2828868 C22.0134454,15.2828868 21.0038616,15.0617059 20.0977334,14.6193441 C19.1916052,14.1769823 18.474551,13.517007 17.9465708,12.6394183 C17.4185906,11.7618296 17.1546005,10.6880319 17.1546005,9.41802548 L17.1546005,0.19264143 L20.1512449,0.19264143 Z" id="path-3"></path>
        <filter x="-381.0%" y="-291.6%" width="862.1%" height="709.7%" filterUnits="objectBoundingBox" id="filter-4">
            <feOffset dx="0" dy="2" in="SourceAlpha" result="shadowOffsetOuter1"></feOffset>
            <feGaussianBlur stdDeviation="15" in="shadowOffsetOuter1" result="shadowBlurOuter1"></feGaussianBlur>
            <feColorMatrix values="0 0 0 0 1   0 0 0 0 1   0 0 0 0 1  0 0 0 0.29 0" type="matrix" in="shadowBlurOuter1"></feColorMatrix>
        </filter>
        <path d="M43.4703712,4.68760814 C43.1278975,4.05973977 42.6569962,3.58170363 42.0576673,3.25349971 C41.4583384,2.92529579 40.7591214,2.76119383 39.9600162,2.76119383 C39.0752926,2.76119383 38.2904571,2.96097013 37.6055098,3.36052273 C36.9205625,3.76007533 36.3854474,4.33086475 36.0001646,5.072891 C35.6148817,5.81491725 35.4222403,6.67110138 35.4222403,7.6414434 C35.4222403,8.64032489 35.6184492,9.51077876 36.0108669,10.252805 C36.4032846,10.9948313 36.949102,11.5656207 37.648319,11.9651733 C38.3475361,12.3647259 39.160911,12.5645022 40.0884438,12.5645022 C41.2300227,12.5645022 42.1646903,12.2612703 42.8924469,11.6548065 C43.6202034,11.0483428 44.0982395,10.2028609 44.3265553,9.11836104 L39.1894505,9.11836104 L39.1894505,6.82806847 L47.2803906,6.82806847 L47.2803906,9.43943009 C47.0806143,10.4811208 46.6525222,11.4443279 45.9961144,12.3290515 C45.3397065,13.2137751 44.4942247,13.9236945 43.4596689,14.4588096 C42.425113,14.9939247 41.265697,15.2614822 39.9814208,15.2614822 C38.5401775,15.2614822 37.2380641,14.9368457 36.0750807,14.2875727 C34.9120972,13.6382998 33.9988342,12.735739 33.3352915,11.5798904 C32.6717488,10.4240418 32.3399774,9.11122617 32.3399774,7.6414434 C32.3399774,6.17166064 32.6717488,4.85527753 33.3352915,3.69229408 C33.9988342,2.52931063 34.9120972,1.62318242 36.0750807,0.973909453 C37.2380641,0.324636484 38.5330426,0 39.9600162,0 C41.643845,0 43.1064929,0.410254898 44.3479599,1.23076469 C45.5894269,2.05127449 46.445611,3.20355564 46.9165123,4.68760814 L43.4703712,4.68760814 Z" id="path-5"></path>
        <filter x="-307.9%" y="-288.3%" width="715.8%" height="702.8%" filterUnits="objectBoundingBox" id="filter-6">
            <feOffset dx="0" dy="2" in="SourceAlpha" result="shadowOffsetOuter1"></feOffset>
            <feGaussianBlur stdDeviation="15" in="shadowOffsetOuter1" result="shadowBlurOuter1"></feGaussianBlur>
            <feColorMatrix values="0 0 0 0 1   0 0 0 0 1   0 0 0 0 1  0 0 0 0.29 0" type="matrix" in="shadowBlurOuter1"></feColorMatrix>
        </filter>
        <polygon id="path-7" points="66.7466882 0.19264143 66.7466882 15.1330546 63.7500437 15.1330546 63.7500437 5.41536465 59.7473829 15.1330546 57.4784949 15.1330546 53.4544295 5.41536465 53.4544295 15.1330546 50.457785 15.1330546 50.457785 0.19264143 53.8611169 0.19264143 58.6129389 11.3016306 63.3647608 0.19264143"></polygon>
        <filter x="-282.4%" y="-294.5%" width="664.8%" height="715.8%" filterUnits="objectBoundingBox" id="filter-8">
            <feOffset dx="0" dy="2" in="SourceAlpha" result="shadowOffsetOuter1"></feOffset>
            <feGaussianBlur stdDeviation="15" in="shadowOffsetOuter1" result="shadowBlurOuter1"></feGaussianBlur>
            <feColorMatrix values="0 0 0 0 1   0 0 0 0 1   0 0 0 0 1  0 0 0 0.29 0" type="matrix" in="shadowBlurOuter1"></feColorMatrix>
        </filter>
        <polygon id="path-9" points="73.6484836 2.61136161 73.6484836 6.3571672 78.6785654 6.3571672 78.6785654 8.73307817 73.6484836 8.73307817 73.6484836 12.6929298 79.3207035 12.6929298 79.3207035 15.1330546 70.6518391 15.1330546 70.6518391 0.171236827 79.3207035 0.171236827 79.3207035 2.61136161"></polygon>
        <filter x="-530.6%" y="-294.1%" width="1161.3%" height="714.9%" filterUnits="objectBoundingBox" id="filter-10">
            <feOffset dx="0" dy="2" in="SourceAlpha" result="shadowOffsetOuter1"></feOffset>
            <feGaussianBlur stdDeviation="15" in="shadowOffsetOuter1" result="shadowBlurOuter1"></feGaussianBlur>
            <feColorMatrix values="0 0 0 0 1   0 0 0 0 1   0 0 0 0 1  0 0 0 0.29 0" type="matrix" in="shadowBlurOuter1"></feColorMatrix>
        </filter>
        <polygon id="path-11" points="93.1575904 0.19264143 93.1575904 2.61136161 89.1763342 2.61136161 89.1763342 15.1330546 86.1796897 15.1330546 86.1796897 2.61136161 82.1984335 2.61136161 82.1984335 0.19264143"></polygon>
        <filter x="-419.7%" y="-294.5%" width="939.5%" height="715.8%" filterUnits="objectBoundingBox" id="filter-12">
            <feOffset dx="0" dy="2" in="SourceAlpha" result="shadowOffsetOuter1"></feOffset>
            <feGaussianBlur stdDeviation="15" in="shadowOffsetOuter1" result="shadowBlurOuter1"></feGaussianBlur>
            <feColorMatrix values="0 0 0 0 1   0 0 0 0 1   0 0 0 0 1  0 0 0 0.29 0" type="matrix" in="shadowBlurOuter1"></feColorMatrix>
        </filter>
        <linearGradient x1="62.6732495%" y1="79.2280651%" x2="11.9246968%" y2="50%" id="linearGradient-13">
            <stop stop-color="#5E58F4" offset="0%"></stop>
            <stop stop-color="#8B70FF" offset="100%"></stop>
        </linearGradient>
    </defs>
    <g id="LOGOS" stroke="none" stroke-width="1" fill="none" fill-rule="evenodd">
        <g id="Group-Copy" transform="translate(0.500000, 1.230264)" fill-rule="nonzero">
            <g id="NAME" transform="translate(36.842410, 6.628292)" opacity="0.98999995">
                <g id="AUGMET">
                    <g id="Shape">
                        <use fill="black" fill-opacity="1" filter="url(#filter-2)" xlink:href="#path-1"></use>
                        <use fill="#5E58F4" xlink:href="#path-1"></use>
                    </g>
                    <g id="Path">
                        <use fill="black" fill-opacity="1" filter="url(#filter-4)" xlink:href="#path-3"></use>
                        <use fill="#5E58F4" xlink:href="#path-3"></use>
                    </g>
                    <g id="Path">
                        <use fill="black" fill-opacity="1" filter="url(#filter-6)" xlink:href="#path-5"></use>
                        <use fill="#5E58F4" xlink:href="#path-5"></use>
                    </g>
                    <g id="Path">
                        <use fill="black" fill-opacity="1" filter="url(#filter-8)" xlink:href="#path-7"></use>
                        <use fill="#5E58F4" xlink:href="#path-7"></use>
                    </g>
                    <g id="Path">
                        <use fill="black" fill-opacity="1" filter="url(#filter-10)" xlink:href="#path-9"></use>
                        <use fill="#5E58F4" xlink:href="#path-9"></use>
                    </g>
                    <g id="Path">
                        <use fill="black" fill-opacity="1" filter="url(#filter-12)" xlink:href="#path-11"></use>
                        <use fill="#5E58F4" xlink:href="#path-11"></use>
                    </g>
                </g>
            </g>
            <g id="Group-4-Copy" fill="url(#linearGradient-13)">
                <path d="M14.2697356,0 C15.3819564,0 16.4784252,0.127470627 17.543502,0.377573903 L17.0108879,2.62038072 C16.1200236,2.41118634 15.2022774,2.30449321 14.2697356,2.30449321 C13.3680349,2.30449321 12.4896074,2.40447124 11.6449267,2.59396652 L11.6230951,2.52607934 C13.2080338,7.55754023 15.2035763,11.3447915 18.1922884,14.6384517 C20.5276477,14.1411732 22.9788174,13.8961498 25.520833,13.9538509 L26.216,13.977 L26.214677,13.8468772 C26.1903306,13.1439346 26.1052952,12.4504453 25.9613413,11.771615 L28.2289553,11.2961167 C28.4348081,12.2668382 28.5394712,13.2618939 28.5394712,14.2697356 C28.5394712,22.1491207 22.1522848,28.5394712 14.2697356,28.5394712 C6.38718638,28.5394712 0,22.1491207 0,14.2697356 C0,6.39035049 6.38718638,0 14.2697356,0 Z M14.9886382,16.8111784 L14.9592188,16.8230714 C11.3455926,18.2469245 8.22297574,20.2809787 5.51341245,22.4138862 C7.6963318,24.7647468 10.8119113,26.2349779 14.2697356,26.2349779 C17.1757416,26.2349779 19.8400212,25.1965586 21.9119848,23.4698796 L22.101,23.611 L21.5600488,23.20329 C18.8522233,21.1331394 16.7310149,19.0764728 14.9886382,16.8111784 Z M8.65162573,3.70609976 C4.88302518,5.71890873 2.31748316,9.69372494 2.31748316,14.2697356 C2.31748316,16.5363105 2.94691,18.6553892 4.04019414,20.4616051 L3.964,20.57 L4.17794496,20.2674752 C7.60529302,15.2783261 8.91375167,9.25543084 8.67545768,4.14480144 L8.65162573,3.70609976 Z M19.395275,15.4704013 L19.0551532,15.5479809 C20.6457073,17.153048 22.4984734,18.6520893 24.6864111,20.139111 C25.5131844,18.6736744 26.0392822,17.0164803 26.1823992,15.2507369 L26.208,14.841 L25.7828987,14.8312381 C23.5178224,14.8012919 21.3918297,15.0354365 19.395275,15.4704013 Z M10.8687984,9.59600489 L10.8090275,9.88166964 C10.0976998,13.1347004 8.7437112,16.4061842 6.82246772,19.4872961 C9.06731156,17.974443 11.5468241,16.7014663 14.217403,15.7584203 C12.915311,13.8971625 11.8343181,11.8802188 10.8687984,9.59600489 Z M20.0790803,1.23247491 C23.3098515,2.67408507 25.9040622,5.27949349 27.3316297,8.51592461 C27.4078996,8.68883565 27.4807295,8.8632992 27.5500691,9.03922287 L25.3923927,9.88015456 C25.3342831,9.73272273 25.2732466,9.58651028 25.2093249,9.44159365 C24.0123898,6.72802816 21.8361117,4.54235633 19.1303049,3.33499178 L20.0790803,1.23247491 Z" id="Combined-Shape"></path>
            </g>
        </g>
    </g>
</svg>