<svg xmlns="http://www.w3.org/2000/svg" width="27" height="27" viewBox="0 0 27 27" fill="none">
  <path fill-rule="evenodd" clip-rule="evenodd" d="M16.5972 0.357207L16.0933 2.47903C15.2505 2.28112 14.3822 2.18018 13.5 2.18018C12.6468 2.18018 11.8157 2.2748 11.0164 2.45412C12.5126 7.18204 14.3961 10.7467 17.2107 13.8486C19.6224 13.3354 22.1634 13.1063 24.8042 13.2233C24.7873 12.516 24.7055 11.8185 24.5609 11.1366L26.7062 10.6868C26.901 11.6051 27 12.5465 27 13.5C27 20.9544 20.9574 27 13.5 27C6.04265 27 0 20.9544 0 13.5C0 6.04564 6.04265 0 13.5 0C14.5522 0 15.5895 0.120595 16.5972 0.357207ZM8.27201 3.46017L8.28059 3.45569L8.28083 3.4565L8.27201 3.46017ZM2.19247 13.5C2.19247 9.17103 4.61939 5.41078 8.18443 3.50646C8.5065 8.49073 7.25695 14.4693 3.82355 19.36C2.78844 17.6508 2.19247 15.6452 2.19247 13.5ZM13.5 24.8198C10.2286 24.8198 7.28095 23.4288 5.21597 21.2049C7.78638 19.1815 10.7497 17.2522 14.1803 15.9046C15.8994 18.1396 18.0083 20.1599 20.73 22.2039C18.7698 23.8374 16.2492 24.8198 13.5 24.8198ZM24.7949 14.0395C24.7098 15.8557 24.1972 17.5598 23.3556 19.0534C21.2849 17.6461 19.5315 16.2274 18.0263 14.7083C20.1254 14.2235 22.3773 13.9726 24.7949 14.0395ZM10.2832 9.07996C9.62726 12.2452 8.32552 15.435 6.45565 18.4342C8.57898 17.0045 10.9241 15.8006 13.4498 14.9086C12.2186 13.1473 11.1963 11.2399 10.2832 9.07996ZM24.0227 9.3472L26.064 8.55163C25.9984 8.3852 25.9295 8.22014 25.8573 8.05656C24.5068 4.99471 22.0525 2.52984 18.996 1.16599L18.0984 3.1551C20.6582 4.29733 22.7171 6.36511 23.8495 8.9323C23.91 9.0694 23.9677 9.20772 24.0227 9.3472Z" fill="url(#paint0_linear_137_810)"/>
  <defs>
    <linearGradient id="paint0_linear_137_810" x1="20.8676" y1="14.5405" x2="7.16546" y2="6.64895" gradientUnits="userSpaceOnUse">
      <stop stop-color="#5D57F4"/>
      <stop offset="1" stop-color="#8B70FF"/>
    </linearGradient>
  </defs>
</svg>

