<svg width="75" height="65" viewBox="0 0 75 65" fill="none" xmlns="http://www.w3.org/2000/svg">
<path d="M38.8182 15.7143C38.4014 15.59 38.164 15.1518 38.2883 14.735C39.7362 9.86967 44.2455 6.29736 49.6109 6.29736C50.0457 6.29736 50.3984 6.65003 50.3984 7.08483C50.3984 7.51961 50.0457 7.87229 49.6109 7.87229C45.114 7.87229 41.0788 10.8787 39.7975 15.1838C39.6743 15.6 39.2368 15.8391 38.8183 15.7142L38.8182 15.7143Z" fill="#7161F8"/>
<path d="M60.6347 45.6704H55.91C55.4752 45.6704 55.1225 45.3177 55.1225 44.8829C55.1225 44.4481 55.4752 44.0954 55.91 44.0954H60.6347C67.1474 44.0954 72.4465 38.7964 72.4465 32.2836C72.4465 25.7708 67.1474 20.4718 60.6347 20.4718H60.521C60.2927 20.4718 60.0756 20.3728 59.9259 20.2001C59.7763 20.0274 59.7088 19.7985 59.7415 19.5724C59.8118 19.0819 59.8472 18.5892 59.8472 18.1094C59.8472 12.4651 55.2546 7.87242 49.6102 7.87242C47.4143 7.87242 45.3203 8.55863 43.554 9.85735C43.1659 10.1425 42.6147 10.016 42.3903 9.58905C37.3883 0.0642457 24.3236 -1.21484 17.5502 7.07091C14.6968 10.5616 13.5757 15.1024 14.4741 19.528C14.5731 20.0168 14.199 20.4724 13.7024 20.4724H13.3868C6.87405 20.4724 1.57499 25.7714 1.57499 32.2842C1.57499 38.797 6.87405 44.096 13.3868 44.096H18.1115C18.5463 44.096 18.899 44.4487 18.899 44.8835C18.899 45.3183 18.5463 45.671 18.1115 45.671H13.3868C6.00549 45.671 0 39.6655 0 32.2841C0 25.1099 5.67301 19.2354 12.7687 18.9114C12.1021 14.3199 13.3767 9.68858 16.3307 6.07423C23.5826 -2.79757 37.4803 -1.80316 43.3552 8.08954C45.2294 6.91454 47.374 6.29813 49.61 6.29813C56.4484 6.29813 61.8673 12.1186 61.3931 18.9188C68.4234 19.3131 74.0211 25.1565 74.0211 32.2836C74.0211 39.6655 68.0156 45.6704 60.6343 45.6704L60.6347 45.6704Z" fill="#7161F8"/>
<path d="M36.9054 64.1247C26.0502 64.1247 17.2188 55.2934 17.2188 44.4381C17.2188 33.5829 26.0501 24.7515 36.9054 24.7515C47.7607 24.7515 56.592 33.5828 56.592 44.4381C56.592 55.2932 47.7607 64.1247 36.9054 64.1247ZM36.9054 26.3267C26.9188 26.3267 18.794 34.4517 18.794 44.4381C18.794 54.4247 26.9189 62.5495 36.9054 62.5495C46.8918 62.5495 55.0167 54.4245 55.0167 44.4381C55.0167 34.4515 46.8918 26.3267 36.9054 26.3267Z" fill="#7161F8"/>
<path d="M37.2649 52.9397C36.9466 52.9397 36.6884 52.6815 36.6884 52.3632V37.3739C36.6884 37.0556 36.9465 36.7974 37.2649 36.7974C37.5832 36.7974 37.8414 37.0556 37.8414 37.3739V52.3632C37.8414 52.6819 37.5832 52.9397 37.2649 52.9397Z" fill="#7161F8" stroke="#7161F8" stroke-width="0.5"/>
<path d="M41.8769 42.5637C41.7294 42.5637 41.5816 42.5073 41.4692 42.3949L37.2648 38.1905L33.0604 42.3949C32.8356 42.6201 32.4704 42.6201 32.2451 42.3949C32.0199 42.1696 32.0199 41.8048 32.2451 41.5795L36.8571 36.9675C37.082 36.7423 37.4472 36.7423 37.6725 36.9675L42.2845 41.5795C42.5097 41.8048 42.5097 42.1696 42.2845 42.3949C42.1721 42.5077 42.0242 42.5637 41.8768 42.5637H41.8769Z" fill="#7161F8" stroke="#7161F8" stroke-width="0.5"/>
</svg>
